<?xml version="1.0" encoding="utf-8"?>
<!-- Generator: Adobe Illustrator 15.0.0, SVG Export Plug-In . SVG Version: 6.00 Build 0)  -->
<!DOCTYPE svg PUBLIC "-//W3C//DTD SVG 1.1//EN" "http://www.w3.org/Graphics/SVG/1.1/DTD/svg11.dtd">
<svg version="1.1" id="Layer_1" xmlns="http://www.w3.org/2000/svg" xmlns:xlink="http://www.w3.org/1999/xlink" x="0px" y="0px"
	 width="1208.16px" height="606.322px" viewBox="0 0 1208.16 606.322" enable-background="new 0 0 1208.16 606.322"
	 xml:space="preserve">
<g>
	<g>
		<g>
			<defs>
				<rect id="SVGID_1_" width="305.766" height="605.766"/>
			</defs>
			<clipPath id="SVGID_2_">
				<use xlink:href="#SVGID_1_"  overflow="visible"/>
			</clipPath>
			
				<polygon clip-path="url(#SVGID_2_)" fill="none" stroke="#403C97" stroke-width="45.7658" stroke-linecap="round" stroke-linejoin="round" points="
				152.883,582.883 282.883,302.883 152.883,22.883 22.883,302.883 152.883,582.883 			"/>
		</g>
		<path fill="none" stroke="#403C97" stroke-width="6.4236" d="M152.896,412.008l0.013-57.912c-17.095,0-23.981-4.123-23.981-10.438
			c0-10,47.965-23.049,47.965-10.193c0,11.928-47.965,0.027-47.965-10.193c0-10.223,47.965-23.05,47.965-10.195
			c0,11.928-47.965,0.027-47.965-10.193c0-10.223,47.965-22.121,47.965-10.194c0,12.854-47.965,0.028-47.965-10.194
			c0-10.222,47.965-22.12,47.965-10.192c0,12.854-47.965-0.196-47.965-10.195c0-6.313,6.887-10.437,23.981-10.437l-0.013-96.973
			 M129.673,154.697h46.446l-23.223,41.991L129.673,154.697L129.673,154.697z M142.09,450.869h21.611H142.09L142.09,450.869z
			 M136.284,438.17h33.224H136.284L136.284,438.17z M130.479,425.471h44.834H130.479L130.479,425.471z M124.673,412.771h56.446
			H124.673L124.673,412.771z M147.09,463.568h11.611H147.09L147.09,463.568z"/>
		<path fill="#403C97" d="M152.883,245.328c31.48,0,57,25.52,57,57s-25.52,57-57,57s-57-25.52-57-57
			S121.402,245.328,152.883,245.328L152.883,245.328z"/>
		<polygon fill="#FFFFFF" points="152.883,343.828 139.882,330.828 142.1,328.609 126.6,313.109 124.382,315.328 111.381,302.328 
			130.869,282.838 143.872,295.838 139.639,300.072 142.298,302.733 153.29,291.74 150.63,289.08 146.541,293.17 133.538,280.168 
			152.883,260.825 165.883,273.826 163.666,276.043 179.164,291.543 181.383,289.326 194.385,302.328 175.041,321.67 
			162.039,308.67 166.129,304.58 163.965,302.418 152.975,313.41 155.135,315.572 159.369,311.338 172.373,324.342 152.883,343.828 
					"/>
	</g>
	<g>
		<path d="M413.671,174.264c0.815,0,1.512,0.287,2.088,0.863s0.864,1.271,0.864,2.088c0,0.863-0.288,1.549-0.864,2.053
			s-1.272,0.756-2.088,0.756h-28.513c-0.863,0-1.572-0.252-2.124-0.756s-0.827-1.189-0.827-2.053v-48.6
			c0-0.815,0.275-1.512,0.827-2.088s1.261-0.864,2.124-0.864c0.864,0,1.549,0.288,2.053,0.864s0.756,1.272,0.756,2.088v45.648
			H413.671z"/>
		<path d="M441.03,148.775c1.296,1.296,2.305,2.797,3.024,4.5c0.72,1.704,1.08,3.492,1.08,5.364v7.344
			c0,1.969-0.372,3.805-1.116,5.507c-0.745,1.705-1.753,3.193-3.023,4.465c-1.272,1.271-2.772,2.268-4.5,2.988
			c-1.729,0.719-3.554,1.08-5.473,1.08c-1.969,0-3.805-0.361-5.508-1.08c-1.704-0.721-3.192-1.717-4.464-2.988
			c-1.272-1.271-2.269-2.76-2.988-4.465c-0.72-1.702-1.08-3.538-1.08-5.507v-7.344c0-1.872,0.36-3.66,1.08-5.364
			c0.72-1.703,1.729-3.204,3.024-4.5h-0.072c1.296-1.392,2.819-2.436,4.572-3.132c1.751-0.695,3.563-1.044,5.436-1.044
			c1.919,0,3.731,0.349,5.437,1.044C438.162,146.34,439.687,147.384,441.03,148.775z M431.022,174.479
			c1.152,0,2.243-0.227,3.276-0.684c1.031-0.455,1.943-1.068,2.735-1.836s1.416-1.668,1.872-2.699
			c0.456-1.032,0.685-2.124,0.685-3.276v-7.344c0-1.104-0.216-2.172-0.648-3.204c-0.432-1.031-1.056-1.955-1.872-2.772
			c-1.632-1.631-3.648-2.447-6.048-2.447c-2.208,0-4.2,0.816-5.976,2.447c-1.633,1.729-2.448,3.721-2.448,5.977v7.344
			c0,1.152,0.228,2.244,0.684,3.276c0.456,1.031,1.056,1.932,1.801,2.699c0.743,0.768,1.631,1.381,2.664,1.836
			C428.778,174.252,429.871,174.479,431.022,174.479z"/>
		<path d="M466.951,144.6c1.631,0,3.168,0.312,4.607,0.936c1.44,0.625,2.7,1.465,3.78,2.521s1.932,2.304,2.557,3.744
			c0.623,1.439,0.936,2.977,0.936,4.607v20.808c0,0.863-0.288,1.549-0.864,2.053s-1.2,0.756-1.872,0.756
			c-0.863,0-1.572-0.252-2.124-0.756s-0.828-1.189-0.828-2.053v-20.808c0-0.864-0.168-1.667-0.504-2.412
			c-0.336-0.743-0.78-1.392-1.332-1.943s-1.2-0.996-1.943-1.332c-0.745-0.336-1.548-0.504-2.412-0.504h-4.464
			c-1.681,0-3.108,0.588-4.284,1.764c-1.177,1.177-1.812,2.604-1.908,4.284v20.951c0,0.863-0.265,1.549-0.792,2.053
			c-0.528,0.504-1.2,0.756-2.016,0.756c-0.817,0-1.501-0.252-2.053-0.756s-0.827-1.189-0.827-2.053v-29.808
			c0-0.864,0.275-1.548,0.827-2.052s1.235-0.756,2.053-0.756c1.392,0,2.279,0.601,2.664,1.8c1.872-1.199,3.983-1.8,6.336-1.8
			H466.951z"/>
		<path d="M510.727,177.215c0,0.289-0.036,0.588-0.107,0.9c-0.072,0.312-0.301,0.684-0.685,1.115
			c-0.528,0.529-1.177,0.793-1.943,0.793l-9.504-0.072c-2.017,0-3.9-0.385-5.652-1.152c-1.753-0.768-3.276-1.801-4.572-3.096
			c-1.296-1.297-2.316-2.82-3.06-4.572c-0.745-1.751-1.116-3.636-1.116-5.651v-6.48c0-2.016,0.371-3.898,1.116-5.651
			c0.743-1.752,1.764-3.276,3.06-4.572s2.819-2.327,4.572-3.096c1.752-0.768,3.636-1.152,5.652-1.152h6.695v-15.264
			c0-0.815,0.252-1.477,0.756-1.98s1.188-0.756,2.053-0.756c0.815,0,1.476,0.252,1.979,0.756s0.756,1.165,0.756,1.98V177.215z
			 M489.703,165.479c0,1.249,0.227,2.4,0.684,3.456c0.456,1.057,1.08,1.992,1.872,2.807c0.792,0.818,1.729,1.453,2.808,1.908
			c1.08,0.457,2.22,0.684,3.421,0.684h6.695v-24.19h-6.695c-1.201,0-2.341,0.24-3.421,0.72c-1.079,0.48-2.016,1.116-2.808,1.908
			s-1.416,1.728-1.872,2.808c-0.457,1.08-0.684,2.221-0.684,3.42V165.479z"/>
		<path d="M539.887,148.775c1.296,1.296,2.305,2.797,3.024,4.5c0.72,1.704,1.08,3.492,1.08,5.364v7.344
			c0,1.969-0.372,3.805-1.116,5.507c-0.745,1.705-1.753,3.193-3.023,4.465c-1.272,1.271-2.772,2.268-4.5,2.988
			c-1.729,0.719-3.554,1.08-5.473,1.08c-1.969,0-3.805-0.361-5.508-1.08c-1.704-0.721-3.192-1.717-4.464-2.988
			c-1.272-1.271-2.269-2.76-2.988-4.465c-0.72-1.702-1.08-3.538-1.08-5.507v-7.344c0-1.872,0.36-3.66,1.08-5.364
			c0.72-1.703,1.729-3.204,3.024-4.5h-0.072c1.296-1.392,2.819-2.436,4.572-3.132c1.751-0.695,3.563-1.044,5.436-1.044
			c1.919,0,3.731,0.349,5.437,1.044C537.019,146.34,538.543,147.384,539.887,148.775z M529.879,174.479
			c1.152,0,2.243-0.227,3.276-0.684c1.031-0.455,1.943-1.068,2.735-1.836s1.416-1.668,1.872-2.699
			c0.456-1.032,0.685-2.124,0.685-3.276v-7.344c0-1.104-0.216-2.172-0.648-3.204c-0.432-1.031-1.056-1.955-1.872-2.772
			c-1.632-1.631-3.648-2.447-6.048-2.447c-2.208,0-4.2,0.816-5.976,2.447c-1.633,1.729-2.448,3.721-2.448,5.977v7.344
			c0,1.152,0.228,2.244,0.684,3.276c0.456,1.031,1.056,1.932,1.801,2.699c0.743,0.768,1.631,1.381,2.664,1.836
			C527.635,174.252,528.728,174.479,529.879,174.479z"/>
		<path d="M565.808,144.6c1.631,0,3.168,0.312,4.607,0.936c1.44,0.625,2.7,1.465,3.78,2.521s1.932,2.304,2.557,3.744
			c0.623,1.439,0.936,2.977,0.936,4.607v20.808c0,0.863-0.288,1.549-0.864,2.053s-1.2,0.756-1.872,0.756
			c-0.863,0-1.572-0.252-2.124-0.756s-0.828-1.189-0.828-2.053v-20.808c0-0.864-0.168-1.667-0.504-2.412
			c-0.336-0.743-0.78-1.392-1.332-1.943s-1.2-0.996-1.943-1.332c-0.745-0.336-1.548-0.504-2.412-0.504h-4.464
			c-1.681,0-3.108,0.588-4.284,1.764c-1.177,1.177-1.812,2.604-1.908,4.284v20.951c0,0.863-0.265,1.549-0.792,2.053
			c-0.528,0.504-1.2,0.756-2.016,0.756c-0.817,0-1.501-0.252-2.053-0.756s-0.827-1.189-0.827-2.053v-29.808
			c0-0.864,0.275-1.548,0.827-2.052s1.235-0.756,2.053-0.756c1.392,0,2.279,0.601,2.664,1.8c1.872-1.199,3.983-1.8,6.336-1.8
			H565.808z"/>
		<path d="M643.927,125.663c0.863,0,1.548,0.288,2.052,0.864s0.756,1.272,0.756,2.088v48.6c0,0.863-0.252,1.549-0.756,2.053
			s-1.188,0.756-2.052,0.756c-0.864,0-1.561-0.252-2.089-0.756s-0.792-1.189-0.792-2.053v-24.191h-28.079v24.191
			c0,0.863-0.277,1.549-0.828,2.053c-0.553,0.504-1.236,0.756-2.053,0.756s-1.5-0.252-2.052-0.756s-0.828-1.189-0.828-2.053v-48.6
			c0-0.815,0.276-1.512,0.828-2.088s1.235-0.864,2.052-0.864s1.5,0.288,2.053,0.864c0.551,0.576,0.828,1.272,0.828,2.088v18.648
			h28.079v-18.648c0-0.815,0.264-1.512,0.792-2.088S643.062,125.663,643.927,125.663z"/>
		<path d="M670.781,144.6c1.104,0,2.207,0.216,3.312,0.647c1.104,0.433,2.062,1.057,2.88,1.872c1.68,1.776,2.52,3.864,2.52,6.265
			v23.831c0,0.863-0.252,1.549-0.756,2.053s-1.164,0.756-1.98,0.756c-1.393,0-2.328-0.551-2.808-1.656
			c-1.824,1.105-3.888,1.656-6.192,1.656h-3.312c-1.633,0-3.168-0.299-4.608-0.9c-1.439-0.6-2.688-1.428-3.743-2.484
			c-1.057-1.055-1.897-2.305-2.521-3.744c-0.624-1.439-0.936-2.975-0.936-4.607c0-1.631,0.287-3.143,0.863-4.536
			c0.576-1.392,1.416-2.639,2.521-3.743c1.104-1.104,2.376-1.956,3.815-2.557c1.44-0.6,2.976-0.899,4.608-0.899h7.344
			c0.672,0,1.199-0.191,1.584-0.576h-0.071c0.335-0.335,0.504-0.888,0.504-1.656v-0.936c0-1.009-0.288-1.775-0.864-2.305
			c-0.529-0.575-1.249-0.863-2.16-0.863h-12.816c-0.816,0-1.5-0.264-2.052-0.792s-0.828-1.199-0.828-2.017
			c0-0.864,0.276-1.548,0.828-2.052s1.235-0.756,2.052-0.756H670.781z M672.005,172.68c1.199-1.152,1.801-2.617,1.801-4.393v-6.264
			c-0.288,0.097-0.602,0.156-0.937,0.18c-0.336,0.025-0.696,0.036-1.08,0.036h-7.344c-1.729,0-3.181,0.576-4.356,1.729
			c-1.177,1.151-1.764,2.592-1.764,4.319c0,0.864,0.155,1.669,0.468,2.412c0.312,0.744,0.744,1.393,1.296,1.943
			c0.552,0.553,1.199,0.998,1.944,1.332c0.744,0.336,1.548,0.504,2.412,0.504h3.312c0.816,0,1.596-0.154,2.341-0.467
			C670.841,173.699,671.477,173.256,672.005,172.68z"/>
		<path d="M699.222,150.216c-1.151,0-2.244,0.228-3.275,0.684c-1.033,0.457-1.921,1.057-2.664,1.8
			c-0.745,0.745-1.345,1.633-1.8,2.664c-0.457,1.033-0.685,2.124-0.685,3.276v7.344c0,1.152,0.228,2.244,0.685,3.276
			c0.455,1.031,1.055,1.932,1.8,2.699c0.743,0.768,1.631,1.381,2.664,1.836c1.031,0.457,2.124,0.684,3.275,0.684h6.12
			c0.815,0,1.487,0.252,2.017,0.756c0.527,0.504,0.792,1.164,0.792,1.98c0,0.863-0.265,1.549-0.792,2.053
			c-0.529,0.504-1.201,0.756-2.017,0.756h-6.12c-1.969,0-3.815-0.361-5.544-1.08c-1.728-0.721-3.229-1.717-4.5-2.988
			c-1.272-1.271-2.268-2.76-2.988-4.465c-0.72-1.702-1.079-3.538-1.079-5.507v-7.344c0-1.92,0.359-3.731,1.079-5.437
			c0.721-1.703,1.716-3.191,2.988-4.464c1.271-1.271,2.772-2.279,4.5-3.023c1.729-0.744,3.575-1.116,5.544-1.116h6.12
			c0.815,0,1.487,0.252,2.017,0.756c0.527,0.504,0.792,1.188,0.792,2.052c0,0.817-0.265,1.488-0.792,2.017
			c-0.529,0.528-1.201,0.792-2.017,0.792H699.222z"/>
		<path d="M739.325,176.062v-0.072c0.383,0.674,0.443,1.393,0.18,2.16c-0.265,0.77-0.732,1.346-1.404,1.729
			c-0.673,0.287-1.38,0.312-2.124,0.072s-1.308-0.695-1.691-1.369l-11.017-22.463h-3.527v21.096c0,0.863-0.241,1.549-0.721,2.053
			c-0.48,0.504-1.177,0.756-2.088,0.756c-0.816,0-1.476-0.252-1.979-0.756s-0.756-1.189-0.756-2.053v-47.735
			c0-0.864,0.252-1.548,0.756-2.052s1.163-0.756,1.979-0.756c0.911,0,1.607,0.252,2.088,0.756c0.479,0.504,0.721,1.188,0.721,2.052
			v21.096h4.392c1.248-0.911,2.508-1.823,3.78-2.735c1.271-0.912,2.531-1.824,3.779-2.736c0.624-0.384,1.32-0.527,2.089-0.432
			c0.767,0.097,1.343,0.408,1.728,0.936c0.432,0.72,0.6,1.501,0.504,2.34c-0.097,0.841-0.48,1.452-1.151,1.836v-0.071
			c-1.152,0.816-2.196,1.56-3.133,2.231c-0.936,0.673-2.005,1.44-3.204,2.304L739.325,176.062z"/>
		<path d="M763.878,166.487c1.631,1.537,2.447,3.456,2.447,5.759c0,2.064-0.792,3.889-2.376,5.473
			c-1.439,1.537-3.288,2.305-5.544,2.305h-13.248c-0.816,0-1.476-0.252-1.979-0.756s-0.756-1.189-0.756-2.053
			c0-0.816,0.252-1.477,0.756-1.98s1.163-0.756,1.979-0.756h13.248c0.288,0,0.588-0.082,0.9-0.252
			c0.312-0.168,0.612-0.324,0.899-0.467c0.191-0.24,0.312-0.492,0.36-0.756c0.047-0.264,0.072-0.516,0.072-0.758
			c0-0.527-0.192-1.104-0.576-1.727c-2.353-2.016-4.729-4.068-7.128-6.156c-2.4-2.088-4.752-4.163-7.056-6.228
			c-1.633-1.584-2.448-3.504-2.448-5.761c0-1.055,0.216-2.062,0.647-3.023c0.433-0.96,0.983-1.8,1.656-2.521
			c1.44-1.535,3.312-2.304,5.616-2.304h11.52c0.816,0,1.5,0.252,2.053,0.756c0.551,0.504,0.828,1.165,0.828,1.98
			c0,0.912-0.277,1.62-0.828,2.124c-0.553,0.504-1.236,0.756-2.053,0.756h-11.52c-0.673,0-1.224,0.216-1.656,0.647
			c-0.385,0.48-0.576,1.009-0.576,1.584c0,0.769,0.145,1.272,0.433,1.513c0.047,0.048,1.271,1.116,3.672,3.204
			C755.621,159.18,759.173,162.312,763.878,166.487z"/>
		<path d="M786.845,144.6c1.872,0,3.672,0.349,5.4,1.044c1.728,0.696,3.24,1.717,4.536,3.06c1.439,1.345,2.495,2.856,3.168,4.536
			c0.672,1.681,1.008,3.48,1.008,5.4v7.344c0,1.969-0.372,3.805-1.116,5.507c-0.744,1.705-1.753,3.193-3.023,4.465
			c-1.272,1.271-2.761,2.268-4.465,2.988c-1.704,0.719-3.54,1.08-5.508,1.08c-1.536,0-3.036-0.229-4.5-0.684
			c-1.465-0.457-2.771-1.117-3.924-1.98v11.807c0,0.816-0.265,1.477-0.792,1.98c-0.528,0.504-1.2,0.756-2.016,0.756
			c-0.817,0-1.501-0.252-2.053-0.756s-0.827-1.164-0.827-1.98v-41.759c0-0.864,0.275-1.548,0.827-2.052s1.235-0.756,2.053-0.756
			c0.815,0,1.487,0.252,2.016,0.756c0.527,0.504,0.792,1.188,0.792,2.052C780.869,145.535,783.677,144.6,786.845,144.6z
			 M795.341,158.64c0-1.056-0.216-2.112-0.647-3.168c-0.433-1.056-1.033-1.991-1.801-2.809h0.072
			c-1.681-1.631-3.721-2.447-6.12-2.447c-2.353,0-4.345,0.816-5.976,2.447c-1.633,1.729-2.448,3.721-2.448,5.977v7.344
			c0,1.152,0.228,2.244,0.685,3.276c0.455,1.031,1.055,1.932,1.8,2.699c0.743,0.768,1.631,1.381,2.664,1.836
			c1.031,0.457,2.124,0.684,3.275,0.684c1.199,0,2.315-0.227,3.349-0.684c1.031-0.455,1.932-1.068,2.699-1.836
			s1.368-1.668,1.801-2.699c0.432-1.032,0.647-2.124,0.647-3.276V158.64z"/>
		<path d="M824.5,144.6c1.104,0,2.207,0.216,3.312,0.647c1.104,0.433,2.062,1.057,2.88,1.872c1.68,1.776,2.52,3.864,2.52,6.265
			v23.831c0,0.863-0.252,1.549-0.756,2.053s-1.164,0.756-1.98,0.756c-1.393,0-2.328-0.551-2.808-1.656
			c-1.824,1.105-3.888,1.656-6.192,1.656h-3.312c-1.633,0-3.168-0.299-4.608-0.9c-1.439-0.6-2.688-1.428-3.743-2.484
			c-1.057-1.055-1.897-2.305-2.521-3.744c-0.624-1.439-0.936-2.975-0.936-4.607c0-1.631,0.287-3.143,0.863-4.536
			c0.576-1.392,1.416-2.639,2.521-3.743c1.104-1.104,2.376-1.956,3.815-2.557c1.44-0.6,2.976-0.899,4.608-0.899h7.344
			c0.672,0,1.199-0.191,1.584-0.576h-0.071c0.335-0.335,0.504-0.888,0.504-1.656v-0.936c0-1.009-0.288-1.775-0.864-2.305
			c-0.529-0.575-1.249-0.863-2.16-0.863h-12.816c-0.816,0-1.5-0.264-2.052-0.792s-0.828-1.199-0.828-2.017
			c0-0.864,0.276-1.548,0.828-2.052s1.235-0.756,2.052-0.756H824.5z M825.724,172.68c1.199-1.152,1.801-2.617,1.801-4.393v-6.264
			c-0.288,0.097-0.602,0.156-0.937,0.18c-0.336,0.025-0.696,0.036-1.08,0.036h-7.344c-1.729,0-3.181,0.576-4.356,1.729
			c-1.177,1.151-1.764,2.592-1.764,4.319c0,0.864,0.155,1.669,0.468,2.412c0.312,0.744,0.744,1.393,1.296,1.943
			c0.552,0.553,1.199,0.998,1.944,1.332c0.744,0.336,1.548,0.504,2.412,0.504h3.312c0.816,0,1.596-0.154,2.341-0.467
			C824.56,173.699,825.195,173.256,825.724,172.68z"/>
		<path d="M852.94,150.216c-1.151,0-2.244,0.228-3.275,0.684c-1.033,0.457-1.921,1.057-2.664,1.8
			c-0.745,0.745-1.345,1.633-1.8,2.664c-0.457,1.033-0.685,2.124-0.685,3.276v7.344c0,1.152,0.228,2.244,0.685,3.276
			c0.455,1.031,1.055,1.932,1.8,2.699c0.743,0.768,1.631,1.381,2.664,1.836c1.031,0.457,2.124,0.684,3.275,0.684h6.12
			c0.815,0,1.487,0.252,2.017,0.756c0.527,0.504,0.792,1.164,0.792,1.98c0,0.863-0.265,1.549-0.792,2.053
			c-0.529,0.504-1.201,0.756-2.017,0.756h-6.12c-1.969,0-3.815-0.361-5.544-1.08c-1.728-0.721-3.229-1.717-4.5-2.988
			c-1.272-1.271-2.268-2.76-2.988-4.465c-0.72-1.702-1.079-3.538-1.079-5.507v-7.344c0-1.92,0.359-3.731,1.079-5.437
			c0.721-1.703,1.716-3.191,2.988-4.464c1.271-1.271,2.772-2.279,4.5-3.023c1.729-0.744,3.575-1.116,5.544-1.116h6.12
			c0.815,0,1.487,0.252,2.017,0.756c0.527,0.504,0.792,1.188,0.792,2.052c0,0.817-0.265,1.488-0.792,2.017
			c-0.529,0.528-1.201,0.792-2.017,0.792H852.94z"/>
		<path d="M879.509,144.6c3.888,0,7.224,1.393,10.008,4.176c1.296,1.296,2.304,2.797,3.024,4.5c0.72,1.704,1.08,3.492,1.08,5.364
			v3.312c0,0.817-0.277,1.501-0.828,2.053c-0.553,0.552-1.236,0.827-2.053,0.827h-19.728v1.152c0,1.152,0.228,2.244,0.684,3.276
			c0.456,1.031,1.068,1.932,1.836,2.699s1.668,1.381,2.7,1.836c1.032,0.457,2.124,0.684,3.276,0.684h7.416
			c0.815,0,1.476,0.252,1.979,0.756c0.505,0.504,0.757,1.164,0.757,1.98c0,0.863-0.252,1.549-0.757,2.053
			c-0.504,0.504-1.164,0.756-1.979,0.756h-7.416c-1.969,0-3.805-0.361-5.508-1.08c-1.705-0.721-3.193-1.717-4.464-2.988
			c-1.272-1.271-2.281-2.76-3.024-4.465c-0.745-1.702-1.116-3.538-1.116-5.507v-7.344c0-1.92,0.348-3.72,1.044-5.4
			c0.695-1.68,1.739-3.191,3.132-4.536v0.072c1.344-1.392,2.868-2.436,4.572-3.132C875.848,144.948,877.637,144.6,879.509,144.6z
			 M887.933,158.64c0-1.104-0.216-2.172-0.647-3.204c-0.433-1.031-1.057-1.955-1.872-2.772c-1.584-1.631-3.553-2.447-5.904-2.447
			c-2.353,0-4.345,0.816-5.977,2.447c-0.816,0.817-1.439,1.741-1.871,2.772c-0.433,1.032-0.648,2.101-0.648,3.204v0.576h16.92
			V158.64z"/>
		<path d="M956.043,175.703l-0.072-0.072c0.384,0.625,0.516,1.297,0.396,2.016c-0.12,0.721-0.54,1.346-1.26,1.873
			c-0.673,0.527-1.404,0.684-2.196,0.467c-0.792-0.215-1.381-0.684-1.764-1.404v0.072c-2.209-3.502-4.369-6.912-6.48-10.223
			c-2.112-3.312-4.272-6.696-6.48-10.152h-11.808v18.936c0,0.863-0.265,1.549-0.792,2.053c-0.528,0.504-1.2,0.756-2.016,0.756
			c-0.864,0-1.561-0.252-2.088-0.756c-0.529-0.504-0.792-1.189-0.792-2.053v-48.6c0-0.815,0.263-1.512,0.792-2.088
			c0.527-0.576,1.247-0.864,2.159-0.864h16.2c2.256,0,4.38,0.433,6.372,1.296c1.991,0.864,3.72,2.029,5.185,3.492
			c1.463,1.465,2.628,3.193,3.491,5.185c0.864,1.992,1.296,4.116,1.296,6.372c0,1.824-0.287,3.563-0.863,5.22
			s-1.381,3.168-2.412,4.536c-1.033,1.368-2.257,2.556-3.672,3.563c-1.417,1.008-2.941,1.776-4.572,2.305L956.043,175.703z
			 M926.379,152.52h13.464c1.44,0,2.809-0.275,4.104-0.828c1.296-0.551,2.423-1.308,3.384-2.268c0.96-0.96,1.716-2.076,2.268-3.349
			c0.552-1.271,0.828-2.628,0.828-4.067c0-1.44-0.276-2.796-0.828-4.068c-0.552-1.271-1.308-2.399-2.268-3.384
			c-0.961-0.983-2.088-1.752-3.384-2.305c-1.296-0.551-2.664-0.827-4.104-0.827h-13.464V152.52z"/>
		<path d="M981.313,144.6c1.104,0,2.207,0.216,3.312,0.647c1.104,0.433,2.062,1.057,2.88,1.872c1.68,1.776,2.52,3.864,2.52,6.265
			v23.831c0,0.863-0.252,1.549-0.756,2.053s-1.164,0.756-1.98,0.756c-1.393,0-2.328-0.551-2.808-1.656
			c-1.824,1.105-3.888,1.656-6.192,1.656h-3.312c-1.633,0-3.168-0.299-4.608-0.9c-1.439-0.6-2.688-1.428-3.743-2.484
			c-1.057-1.055-1.897-2.305-2.521-3.744c-0.624-1.439-0.936-2.975-0.936-4.607c0-1.631,0.287-3.143,0.863-4.536
			c0.576-1.392,1.416-2.639,2.521-3.743c1.104-1.104,2.376-1.956,3.815-2.557c1.44-0.6,2.976-0.899,4.608-0.899h7.344
			c0.672,0,1.199-0.191,1.584-0.576h-0.071c0.335-0.335,0.504-0.888,0.504-1.656v-0.936c0-1.009-0.288-1.775-0.864-2.305
			c-0.529-0.575-1.249-0.863-2.16-0.863h-12.816c-0.816,0-1.5-0.264-2.052-0.792s-0.828-1.199-0.828-2.017
			c0-0.864,0.276-1.548,0.828-2.052s1.235-0.756,2.052-0.756H981.313z M982.537,172.68c1.199-1.152,1.801-2.617,1.801-4.393v-6.264
			c-0.288,0.097-0.602,0.156-0.937,0.18c-0.336,0.025-0.696,0.036-1.08,0.036h-7.344c-1.729,0-3.181,0.576-4.356,1.729
			c-1.177,1.151-1.764,2.592-1.764,4.319c0,0.864,0.155,1.669,0.468,2.412c0.312,0.744,0.744,1.393,1.296,1.943
			c0.552,0.553,1.199,0.998,1.944,1.332c0.744,0.336,1.548,0.504,2.412,0.504h3.312c0.816,0,1.596-0.154,2.341-0.467
			C981.373,173.699,982.009,173.256,982.537,172.68z"/>
		<path d="M1022.353,177.215c0,0.289-0.036,0.588-0.107,0.9c-0.072,0.312-0.301,0.684-0.685,1.115
			c-0.528,0.529-1.177,0.793-1.943,0.793l-9.504-0.072c-2.017,0-3.9-0.385-5.652-1.152c-1.753-0.768-3.276-1.801-4.572-3.096
			c-1.296-1.297-2.316-2.82-3.06-4.572c-0.745-1.751-1.116-3.636-1.116-5.651v-6.48c0-2.016,0.371-3.898,1.116-5.651
			c0.743-1.752,1.764-3.276,3.06-4.572s2.819-2.327,4.572-3.096c1.752-0.768,3.636-1.152,5.652-1.152h6.695v-15.264
			c0-0.815,0.252-1.477,0.756-1.98s1.188-0.756,2.053-0.756c0.815,0,1.476,0.252,1.979,0.756s0.756,1.165,0.756,1.98V177.215z
			 M1001.329,165.479c0,1.249,0.227,2.4,0.684,3.456c0.456,1.057,1.08,1.992,1.872,2.807c0.792,0.818,1.729,1.453,2.808,1.908
			c1.08,0.457,2.22,0.684,3.421,0.684h6.695v-24.19h-6.695c-1.201,0-2.341,0.24-3.421,0.72c-1.079,0.48-2.016,1.116-2.808,1.908
			s-1.416,1.728-1.872,2.808c-0.457,1.08-0.684,2.221-0.684,3.42V165.479z"/>
		<path d="M1031.497,142.583c-0.817,0-1.477-0.275-1.98-0.827s-0.756-1.235-0.756-2.053c0-0.863,0.252-1.548,0.756-2.052
			s1.163-0.756,1.98-0.756c0.815,0,1.499,0.252,2.052,0.756c0.551,0.504,0.828,1.188,0.828,2.052c0,0.817-0.277,1.501-0.828,2.053
			C1032.996,142.308,1032.312,142.583,1031.497,142.583z M1034.377,177.143c0,0.865-0.277,1.549-0.828,2.053
			c-0.553,0.504-1.236,0.756-2.052,0.756c-1.825,0-2.736-0.936-2.736-2.809v-29.735c0-0.864,0.252-1.548,0.756-2.052
			s1.163-0.756,1.98-0.756c0.815,0,1.499,0.252,2.052,0.756c0.551,0.504,0.828,1.188,0.828,2.052V177.143z"/>
		<path d="M1064.185,148.775c1.296,1.296,2.305,2.797,3.024,4.5c0.72,1.704,1.08,3.492,1.08,5.364v7.344
			c0,1.969-0.372,3.805-1.116,5.507c-0.745,1.705-1.753,3.193-3.023,4.465c-1.272,1.271-2.772,2.268-4.5,2.988
			c-1.729,0.719-3.554,1.08-5.473,1.08c-1.969,0-3.805-0.361-5.508-1.08c-1.704-0.721-3.192-1.717-4.464-2.988
			c-1.272-1.271-2.269-2.76-2.988-4.465c-0.72-1.702-1.08-3.538-1.08-5.507v-7.344c0-1.872,0.36-3.66,1.08-5.364
			c0.72-1.703,1.729-3.204,3.024-4.5h-0.072c1.296-1.392,2.819-2.436,4.572-3.132c1.751-0.695,3.563-1.044,5.436-1.044
			c1.919,0,3.731,0.349,5.437,1.044C1061.316,146.34,1062.841,147.384,1064.185,148.775z M1054.177,174.479
			c1.152,0,2.243-0.227,3.276-0.684c1.031-0.455,1.943-1.068,2.735-1.836s1.416-1.668,1.872-2.699
			c0.456-1.032,0.685-2.124,0.685-3.276v-7.344c0-1.104-0.216-2.172-0.648-3.204c-0.432-1.031-1.056-1.955-1.872-2.772
			c-1.632-1.631-3.648-2.447-6.048-2.447c-2.208,0-4.2,0.816-5.976,2.447c-1.633,1.729-2.448,3.721-2.448,5.977v7.344
			c0,1.152,0.228,2.244,0.684,3.276c0.456,1.031,1.056,1.932,1.801,2.699c0.743,0.768,1.631,1.381,2.664,1.836
			C1051.933,174.252,1053.025,174.479,1054.177,174.479z"/>
		<path d="M1124.521,174.264c0.864,0,1.548,0.287,2.052,0.863s0.756,1.271,0.756,2.088c0,0.863-0.252,1.549-0.756,2.053
			s-1.188,0.756-2.052,0.756h-9.432c-2.641,0-5.161-0.492-7.561-1.477c-2.4-0.982-4.513-2.387-6.336-4.213
			c-1.872-1.918-3.312-4.078-4.32-6.479c-1.008-2.399-1.512-4.896-1.512-7.488v-14.976c0-2.736,0.516-5.292,1.548-7.668
			s2.436-4.464,4.212-6.265c1.775-1.8,3.863-3.215,6.265-4.247c2.399-1.032,4.968-1.549,7.704-1.549h9.359
			c0.815,0,1.5,0.288,2.052,0.864s0.828,1.272,0.828,2.088c0,0.864-0.276,1.548-0.828,2.052c-0.552,0.505-1.236,0.757-2.052,0.757
			h-9.359c-1.921,0-3.733,0.372-5.437,1.115c-1.704,0.745-3.181,1.741-4.428,2.988c-1.249,1.249-2.244,2.725-2.988,4.428
			c-0.745,1.705-1.116,3.518-1.116,5.437v14.976c0,3.889,1.368,7.153,4.104,9.791c1.247,1.393,2.711,2.426,4.392,3.098
			c1.68,0.672,3.504,1.008,5.473,1.008H1124.521z"/>
		<path d="M1135.393,126.6c0.672,0,1.296,0.252,1.872,0.756s0.863,1.188,0.863,2.052v47.735c0,0.865-0.287,1.549-0.863,2.053
			s-1.2,0.756-1.872,0.756c-0.864,0-1.573-0.252-2.124-0.756c-0.553-0.504-0.828-1.188-0.828-2.053v-47.735
			c0-0.864,0.275-1.548,0.828-2.052C1133.819,126.852,1134.528,126.6,1135.393,126.6z"/>
		<path d="M1170.673,177.215c0,0.863-0.288,1.549-0.864,2.053s-1.2,0.756-1.872,0.756c-1.393,0-2.329-0.576-2.808-1.729
			c-1.729,1.152-3.816,1.729-6.265,1.729h-3.456c-1.632,0-3.168-0.299-4.607-0.9c-1.44-0.6-2.7-1.439-3.78-2.52
			s-1.933-2.328-2.556-3.744c-0.625-1.416-0.937-2.963-0.937-4.644v-20.809c0-0.864,0.288-1.548,0.864-2.052
			s1.224-0.756,1.944-0.756c0.815,0,1.487,0.252,2.016,0.756c0.527,0.504,0.792,1.188,0.792,2.052v20.809
			c0,0.863,0.168,1.668,0.504,2.411c0.335,0.744,0.792,1.404,1.368,1.98s1.235,1.033,1.979,1.367
			c0.744,0.336,1.549,0.504,2.412,0.504h3.456c1.632,0,3.061-0.586,4.284-1.764c1.224-1.176,1.836-2.58,1.836-4.211v-21.097
			c0-0.864,0.288-1.548,0.864-2.052s1.271-0.756,2.088-0.756c0.672,0,1.296,0.252,1.872,0.756s0.864,1.188,0.864,2.052V177.215z"/>
		<path d="M1191.696,144.6c1.872,0,3.708,0.359,5.509,1.08c1.8,0.72,3.371,1.776,4.716,3.168c1.439,1.344,2.508,2.904,3.204,4.68
			c0.695,1.776,1.044,3.625,1.044,5.544v6.552c0,1.921-0.349,3.77-1.044,5.543c-0.696,1.777-1.765,3.361-3.204,4.754v-0.072
			c-1.345,1.295-2.905,2.316-4.681,3.059c-1.776,0.746-3.624,1.117-5.544,1.117h-8.136l-1.296,0.072
			c-0.288,0-0.648-0.084-1.08-0.252s-0.769-0.371-1.008-0.613c-0.48-0.623-0.72-1.271-0.72-1.943v-47.88
			c0-0.864,0.252-1.548,0.756-2.052s1.188-0.756,2.052-0.756s1.548,0.252,2.052,0.756s0.756,1.188,0.756,2.052V144.6H1191.696z
			 M1200.48,159.071c0-2.495-0.84-4.607-2.52-6.336c-0.817-0.815-1.753-1.439-2.809-1.872c-1.056-0.432-2.208-0.647-3.456-0.647
			h-6.624v24.263h6.624c2.4,0,4.464-0.887,6.192-2.664c0.864-0.814,1.512-1.764,1.944-2.843c0.432-1.08,0.647-2.196,0.647-3.349
			V159.071z"/>
	</g>
	<g>
		<path d="M542.696,204.212c2.961,0,5.443,1.046,7.449,3.136c2,2.09,3.005,4.621,3.005,7.582v176.433
			c0,3.136-1.005,5.619-3.005,7.45c-2.006,1.827-4.488,2.741-7.449,2.741c-2.965,0-5.448-0.914-7.45-2.741
			c-2.005-1.831-3.007-4.314-3.007-7.45V227.214c-8.887,13.591-17.642,27.182-26.268,40.775
			c-8.625,13.591-17.383,27.181-26.27,40.776c-1.045,1.567-2.312,2.701-3.791,3.398c-1.482,0.696-3.004,1.042-4.572,1.042
			c-3.661,0-6.535-1.394-8.626-4.179c-9.933-13.594-19.865-27.272-29.797-41.038c-9.934-13.766-19.867-27.446-29.798-41.038v164.411
			c0,3.136-1.047,5.619-3.138,7.45c-2.092,1.827-4.618,2.741-7.58,2.741c-3.138,0-5.619-0.914-7.449-2.741
			c-1.828-1.831-2.744-4.314-2.744-7.45V214.93c0-2.961,0.916-5.492,2.744-7.582c1.83-2.09,4.312-3.136,7.449-3.136h15.16
			c1.915,0,3.568,0.438,4.968,1.306c1.391,0.875,2.522,2.005,3.396,3.398c9.409,12.897,18.559,25.445,27.445,37.64
			c8.887,12.197,18.035,24.833,27.445,37.901c7.842-12.547,15.813-25.095,23.916-37.64c8.103-12.548,16.075-25.095,23.917-37.64
			c2.263-3.307,5.398-4.966,9.41-4.966H542.696z"/>
		<path d="M658.745,207.869c9.758,0,18.905,1.831,27.445,5.492c8.537,3.656,15.984,8.667,22.348,15.026
			c6.359,6.363,11.37,13.813,15.028,22.35c3.662,8.541,5.49,17.69,5.49,27.444v53.323c0,9.762-1.828,18.91-5.49,27.443
			c-3.658,8.54-8.669,15.946-15.028,22.219c-6.363,6.275-13.811,11.237-22.348,14.899c-8.54,3.657-17.688,5.487-27.445,5.487
			c-9.586,0-18.648-1.83-27.184-5.487c-8.54-3.662-15.99-8.624-22.35-14.899c-6.361-6.272-11.414-13.679-15.159-22.219
			c-3.75-8.533-5.62-17.682-5.62-27.443v-53.323c0-9.754,1.87-18.903,5.62-27.444c3.745-8.536,8.798-15.986,15.159-22.35
			c6.359-6.359,13.81-11.37,22.35-15.026C640.097,209.7,649.159,207.869,658.745,207.869z M609.083,331.505
			c0,6.797,1.307,13.243,3.92,19.341c2.614,6.104,6.184,11.418,10.717,15.946c4.529,4.532,9.802,8.103,15.812,10.717
			c6.014,2.611,12.417,3.92,19.213,3.92c5.227,0,10.149-0.824,14.768-2.482c4.615-1.655,9.019-3.877,13.2-6.666
			c-10.978-20.038-22.307-40.513-33.979-61.426c-11.676-20.909-23.092-41.56-34.241-61.947c-2.965,4.012-5.272,8.54-6.926,13.591
			c-1.659,5.058-2.483,10.286-2.483,15.684V331.505z M708.669,278.182c0-6.965-1.307-13.499-3.92-19.604
			c-2.614-6.097-6.188-11.41-10.717-15.943c-4.535-4.528-9.848-8.102-15.945-10.717c-6.102-2.614-12.545-3.92-19.342-3.92
			c-9.062,0-17.166,2.265-24.308,6.793c5.921,10.81,11.63,21.219,17.12,31.236c5.488,10.024,10.933,19.997,16.336,29.931
			c5.398,9.93,10.889,19.954,16.466,30.06c5.576,10.106,11.326,20.562,17.252,31.363c2.263-3.83,4.008-7.929,5.228-12.286
			c1.218-4.354,1.83-8.886,1.83-13.59V278.182z"/>
		<path d="M897.907,204.212c3.136,0,5.619,1.046,7.449,3.136s2.744,4.621,2.744,7.582v176.433c0,3.136-0.914,5.619-2.744,7.45
			c-1.83,1.827-4.313,2.741-7.449,2.741c-3.137,0-5.665-0.914-7.58-2.741c-1.92-1.831-2.874-4.314-2.874-7.45v-87.826h-101.94
			v87.826c0,3.136-1.005,5.619-3.006,7.45c-2.005,1.827-4.488,2.741-7.449,2.741c-2.964,0-5.448-0.914-7.45-2.741
			c-2.005-1.831-3.006-4.314-3.006-7.45V214.93c0-2.961,1.001-5.492,3.006-7.582c2.002-2.09,4.486-3.136,7.45-3.136
			c2.961,0,5.444,1.046,7.449,3.136c2.001,2.09,3.006,4.621,3.006,7.582v67.697h101.94V214.93c0-2.961,0.954-5.492,2.874-7.582
			C892.242,205.258,894.771,204.212,897.907,204.212z"/>
		<path d="M975.795,225.121c-5.056,0-9.76,1.922-14.113,5.75c-3.66,4.012-5.49,8.541-5.49,13.595c0,5.575,1.916,10.283,5.75,14.112
			v-0.259c13.765,12.372,27.617,24.613,41.562,36.724c13.938,12.114,27.792,24.352,41.56,36.725
			c4.354,4.011,7.579,8.583,9.671,13.722c2.091,5.141,3.136,10.323,3.136,15.552c0,5.751-1.091,11.067-3.268,15.943
			c-2.18,4.883-5.096,9.148-8.756,12.81c-3.658,3.658-7.931,6.534-12.808,8.624c-4.881,2.094-10.023,3.136-15.422,3.136h-73.448
			c-3.136,0-5.618-1.086-7.448-3.268c-1.83-2.176-2.745-4.484-2.745-6.924c0-2.961,0.915-5.492,2.745-7.581s4.312-3.137,7.448-3.137
			h73.448c5.576,0,10.149-1.913,13.723-5.75c3.569-3.832,5.358-8.449,5.358-13.854c0-2.614-0.521-5.098-1.567-7.449
			c-1.046-2.353-2.441-4.485-4.184-6.403c-13.767-12.022-27.62-24.221-41.56-36.593c-13.941-12.373-27.795-24.658-41.559-36.855
			c-4.012-3.832-7.102-8.274-9.278-13.332c-2.184-5.051-3.268-10.367-3.268-15.942s0.999-10.717,3.005-15.425
			c2.001-4.704,4.835-9.058,8.494-13.069c8.364-7.84,18.036-11.76,29.014-11.76h73.188c2.961,0,5.489,1.046,7.581,3.136
			s2.961,4.704,2.612,7.84c-0.35,6.626-3.748,9.934-10.193,9.934H975.795z"/>
		<path d="M1197.442,380.645c2.962,0,5.49,1.048,7.582,3.137s3.136,4.62,3.136,7.581c0,3.136-1.044,5.619-3.136,7.45
			c-2.092,1.827-4.62,2.741-7.582,2.741h-103.506c-3.138,0-5.71-0.914-7.71-2.741c-2.006-1.831-3.007-4.314-3.007-7.45V214.93
			c0-2.961,1.001-5.492,3.007-7.582c2-2.09,4.572-3.136,7.71-3.136c3.136,0,5.62,1.046,7.45,3.136
			c1.829,2.09,2.744,4.621,2.744,7.582v165.715H1197.442z"/>
	</g>
	<line fill="none" x1="25.408" y1="606.322" x2="125.415" y2="606.322"/>
</g>
</svg>
